<?xml version="1.0" encoding="UTF-8" standalone="no"?>
<svg
   xmlns:dc="http://purl.org/dc/elements/1.1/"
   xmlns:cc="http://creativecommons.org/ns#"
   xmlns:rdf="http://www.w3.org/1999/02/22-rdf-syntax-ns#"
   xmlns:svg="http://www.w3.org/2000/svg"
   xmlns="http://www.w3.org/2000/svg"
   xmlns:xlink="http://www.w3.org/1999/xlink"
   xmlns:sodipodi="http://sodipodi.sourceforge.net/DTD/sodipodi-0.dtd"
   xmlns:inkscape="http://www.inkscape.org/namespaces/inkscape"
   width="200"
   height="187"
   id="svg2"
   version="1.1"
   inkscape:version="1.0.2-2 (e86c870879, 2021-01-15)"
   sodipodi:docname="background_freecad_dark.svg"
   viewBox="0 0 200 187">
  <defs
     id="defs4">
    <linearGradient
       id="linearGradient3864">
      <stop
         style="stop-color:#71b2f8;stop-opacity:1;"
         offset="0"
         id="stop3866" />
      <stop
         style="stop-color:#002795;stop-opacity:1;"
         offset="1"
         id="stop3868" />
    </linearGradient>
    <linearGradient
       id="linearGradient3682">
      <stop
         id="stop3684"
         offset="0"
         style="stop-color:#ff6d0f;stop-opacity:1;" />
      <stop
         id="stop3686"
         offset="1"
         style="stop-color:#ff1000;stop-opacity:1;" />
    </linearGradient>
    <inkscape:perspective
       id="perspective3148"
       inkscape:persp3d-origin="32 : 21.333333 : 1"
       inkscape:vp_z="64 : 32 : 1"
       inkscape:vp_y="0 : 1000 : 0"
       inkscape:vp_x="0 : 32 : 1"
       sodipodi:type="inkscape:persp3d" />
    <linearGradient
       id="linearGradient3864-9">
      <stop
         id="stop3866-1"
         offset="0"
         style="stop-color:#204a87;stop-opacity:1" />
      <stop
         id="stop3868-1"
         offset="1"
         style="stop-color:#729fcf;stop-opacity:1" />
    </linearGradient>
    <linearGradient
       id="linearGradient3682-0">
      <stop
         style="stop-color:#a40000;stop-opacity:1"
         offset="0"
         id="stop3684-0" />
      <stop
         style="stop-color:#ef2929;stop-opacity:1"
         offset="1"
         id="stop3686-0" />
    </linearGradient>
    <inkscape:perspective
       sodipodi:type="inkscape:persp3d"
       inkscape:vp_x="0 : 32 : 1"
       inkscape:vp_y="0 : 1000 : 0"
       inkscape:vp_z="64 : 32 : 1"
       inkscape:persp3d-origin="32 : 21.333333 : 1"
       id="perspective3148-5" />
    <radialGradient
       inkscape:collect="always"
       xlink:href="#linearGradient3682-0-6"
       id="radialGradient3817-5-3"
       gradientUnits="userSpaceOnUse"
       gradientTransform="matrix(1.2361257,0.30001695,-0.83232803,3.3883821,-499.9452,-167.33108)"
       cx="270.58316"
       cy="33.899986"
       fx="270.58316"
       fy="33.899986"
       r="19.571428" />
    <linearGradient
       id="linearGradient3682-0-6">
      <stop
         style="stop-color:#ff390f;stop-opacity:1"
         offset="0"
         id="stop3684-0-7" />
      <stop
         style="stop-color:#ff1000;stop-opacity:1;"
         offset="1"
         id="stop3686-0-5" />
    </linearGradient>
    <inkscape:perspective
       id="perspective3148-4"
       inkscape:persp3d-origin="32.000001 : 21.333333 : 1"
       inkscape:vp_z="64.000003 : 31.999999 : 1"
       inkscape:vp_y="0 : 999.99999 : 0"
       inkscape:vp_x="0 : 31.999999 : 1"
       sodipodi:type="inkscape:persp3d" />
  </defs>
  <sodipodi:namedview
     id="base"
     pagecolor="#ffffff"
     bordercolor="#c0c0c0"
     borderopacity="1"
     inkscape:pageopacity="0"
     inkscape:pageshadow="2"
     inkscape:zoom="3.233469"
     inkscape:cx="102.05736"
     inkscape:cy="96.1272"
     inkscape:document-units="mm"
     inkscape:current-layer="layer1"
     showgrid="true"
     showguides="true"
     inkscape:guide-bbox="true"
     inkscape:object-nodes="true"
     guidecolor="#0092ff"
     guideopacity="0.49803922"
     guidehicolor="#ff5200"
     guidehiopacity="0.49803922"
     fit-margin-top="0"
     fit-margin-left="0"
     fit-margin-right="0"
     fit-margin-bottom="0"
     inkscape:snap-global="true"
     inkscape:window-width="1920"
     inkscape:window-height="1017"
     inkscape:window-x="1912"
     inkscape:window-y="-8"
     inkscape:window-maximized="1"
     borderlayer="true"
     units="px"
     inkscape:document-rotation="0">
    <inkscape:grid
       type="xygrid"
       id="grid2242"
       originx="-6.1718749e-05"
       originy="1.4183046e-05"
       enabled="true"
       spacingx="0.49999999"
       spacingy="0.49999999"
       empspacing="2"
       color="#c63fff"
       opacity="0.0627451" />
  </sodipodi:namedview>
  <metadata
     id="metadata7">
    <rdf:RDF>
      <cc:Work
         rdf:about="">
        <dc:format>image/svg+xml</dc:format>
        <dc:type
           rdf:resource="http://purl.org/dc/dcmitype/StillImage" />
        <dc:title />
        <dc:creator>
          <cc:Agent>
            <dc:title>Pablo Gil</dc:title>
          </cc:Agent>
        </dc:creator>
        <dc:subject>
          <rdf:Bag>
            <rdf:li>SVG</rdf:li>
            <rdf:li>template</rdf:li>
          </rdf:Bag>
        </dc:subject>
      </cc:Work>
    </rdf:RDF>
  </metadata>
  <g
     inkscape:label="Capa 1"
     inkscape:groupmode="layer"
     id="layer1"
     transform="translate(-1074.0664,-169.59799)">
    <path
       style="fill:#000000;fill-opacity:0.09236947;stroke-width:1.08487"
       d="m 1112.4595,339.49777 c 4.7598,-2.07561 12.9894,-8.73636 15.1866,-12.29148 3.9384,-6.37269 4.6014,-13.01259 4.518,-45.2646 l -0.081,-30.97533 12.8073,-12.96174 c 15.1875,-15.3705 18.0597,-19.02474 21.4689,-27.31473 l 2.574,-6.25944 0.03,10.22844 0.03,10.22844 -9.7638,12.74784 -9.7638,12.74787 V 284.392 c 0,37.2984 0.246,38.83122 6.2454,38.83122 4.9719,0 1.443,1.64463 -19.2858,8.98845 -18.5298,6.56466 -31.0023,10.35777 -23.9586,7.2861 z m 115.1091,0.0954 c -0.8949,-0.50703 -10.6587,-3.9495 -21.6972,-7.64991 -25.4877,-8.54418 -24.0108,-7.89213 -19.5561,-8.63448 6.3159,-1.05264 6.5037,-2.18427 6.5217,-39.30162 l 0.03,-33.24927 -9.7044,-12.44349 -9.7041,-12.44352 -0.6516,-11.26269 -0.6513,-11.26266 4.1178,8.07927 c 2.9424,5.77353 7.6296,11.89998 16.4232,21.4671 6.768,7.36332 13.4448,14.13444 14.8377,15.04698 l 2.532,1.65912 0.3504,34.91409 0.3507,34.91406 2.8659,5.42433 c 3.4221,6.47658 5.1786,8.16612 12.9309,12.43908 3.2451,1.78869 5.1681,3.24618 4.2732,3.23883 -0.8952,-0.006 -2.3598,-0.42819 -3.2547,-0.93522 z m -149.7114,-12.01848 c 0,-0.57264 1.5867,-1.83909 3.5259,-2.8143 5.8038,-2.91876 12.6795,-10.30113 14.0433,-15.07803 1.6944,-5.9349 1.5621,-80.74488 -0.162,-91.12788 -1.9236,-11.59176 -2.6235,-12.50289 -12.438,-16.19484 -4.7247,-1.77738 -8.0568,-3.40953 -7.4043,-3.62703 0.6525,-0.2175 10.8648,1.60275 22.6938,4.04496 20.2263,4.17585 21.7053,4.64823 24.8253,7.92852 1.8246,1.91847 7.416,7.77297 12.4257,13.00998 l 9.1083,9.52191 -3.3606,3.36048 c -1.848,1.84827 -3.8931,3.03129 -4.5438,2.62896 -0.651,-0.40233 -4.7304,-5.87589 -9.0654,-12.1635 l -7.8816,-11.43204 -0.285,43.75923 c -0.156,24.06756 -0.051,44.3673 0.234,45.11052 0.285,0.74322 2.0004,2.25237 3.8112,3.35367 l 3.2928,2.00238 -19.2582,7.37157 c -10.5918,4.05435 -21.5766,8.27493 -24.411,9.37908 -2.8341,1.10415 -5.1531,1.539 -5.1531,0.96636 z m 161.4222,-8.59674 c -21.645,-8.18583 -24.2466,-9.41721 -21.4512,-10.15374 1.7496,-0.46101 3.618,-1.6815 4.1517,-2.71218 1.3401,-2.58804 2.7939,-90.29052 1.4967,-90.29052 -0.5562,0 -4.7745,5.37147 -9.3738,11.93661 -8.9406,12.76164 -9.3279,12.9726 -14.1135,7.68441 -2.055,-2.27064 -2.0235,-2.31498 10.8606,-15.23208 l 12.9219,-12.95478 21.5826,-4.42023 c 11.8704,-2.43111 21.7593,-4.24347 21.9753,-4.02744 0.216,0.216 -2.6244,1.30632 -6.312,2.42289 -3.6879,1.11654 -8.0418,3.15489 -9.6756,4.52958 -4.9722,4.18389 -5.7645,12.41829 -5.8224,60.50727 -0.06,48.93561 -0.3933,47.15046 10.3569,55.23159 3.4989,2.63028 6.9825,5.00373 7.7409,5.27433 0.7584,0.2706 1.1349,0.72324 0.8367,1.00593 -0.3,0.2826 -11.6271,-3.67806 -25.1748,-8.80164 z m -73.398,-38.39688 c -2.6025,-6.08229 -6.63,-13.60077 -8.9502,-16.70772 -4.6962,-6.28893 -5.2719,-10.02711 -2.1549,-13.98981 l 2.0634,-2.62323 6.4719,7.06278 c 3.5595,3.88452 6.8895,7.06278 7.3998,7.06278 0.5106,0 3.9663,-3.01089 7.6791,-6.69084 5.7675,-5.71605 6.9966,-6.48693 8.4369,-5.29149 2.9685,2.46357 2.1396,9.47019 -1.6926,14.30871 -1.8582,2.34624 -5.562,9.25116 -8.2305,15.34422 -2.6685,6.09309 -5.1756,11.41695 -5.5713,11.83083 -0.396,0.41385 -2.8491,-4.22394 -5.4516,-10.30623 z"
       id="path42" />
  </g>
</svg>
