<?xml version="1.0" encoding="UTF-8" standalone="no"?>
<svg
   xmlns:dc="http://purl.org/dc/elements/1.1/"
   xmlns:cc="http://creativecommons.org/ns#"
   xmlns:rdf="http://www.w3.org/1999/02/22-rdf-syntax-ns#"
   xmlns:svg="http://www.w3.org/2000/svg"
   xmlns="http://www.w3.org/2000/svg"
   xmlns:sodipodi="http://sodipodi.sourceforge.net/DTD/sodipodi-0.dtd"
   xmlns:inkscape="http://www.inkscape.org/namespaces/inkscape"
   version="1.1"
   id="svg10"
   width="64"
   height="64"
   viewBox="0 0 64 64"
   sodipodi:docname="MA_Logo.svg"
   inkscape:version="1.0.2-2 (e86c870879, 2021-01-15)">
  <metadata
     id="metadata16">
    <rdf:RDF>
      <cc:Work
         rdf:about="">
        <dc:format>image/svg+xml</dc:format>
        <dc:type
           rdf:resource="http://purl.org/dc/dcmitype/StillImage" />
        <dc:title></dc:title>
      </cc:Work>
    </rdf:RDF>
  </metadata>
  <defs
     id="defs14" />
  <sodipodi:namedview
     pagecolor="#ffffff"
     bordercolor="#666666"
     borderopacity="1"
     objecttolerance="10"
     gridtolerance="10"
     guidetolerance="10"
     inkscape:pageopacity="0"
     inkscape:pageshadow="2"
     inkscape:window-width="1920"
     inkscape:window-height="1017"
     id="namedview12"
     showgrid="false"
     inkscape:zoom="4"
     inkscape:cx="-39.131689"
     inkscape:cy="48.959928"
     inkscape:window-x="1912"
     inkscape:window-y="-8"
     inkscape:window-maximized="1"
     inkscape:current-layer="g18"
     units="px"
     height="64mm" />
  <g
     inkscape:groupmode="layer"
     inkscape:label="Image"
     id="g18">
    <path
       style="fill:#000000;stroke-width:0.361622"
       d="m 12.449983,55.610632 c 1.586605,-0.691874 4.329811,-2.91212 5.062206,-4.097158 1.312847,-2.124232 1.533768,-4.337539 1.506029,-15.088205 l -0.02664,-10.325107 4.269151,-4.32058 c 5.062512,-5.123498 6.019894,-6.341578 7.156241,-9.104909 l 0.858012,-2.086486 0.0086,3.40948 0.0086,3.40948 -3.254597,4.249287 -3.254597,4.249287 v 11.336324 c 2.5e-5,12.432798 0.0822,12.943738 2.081775,12.943738 1.657327,0 0.481077,0.548211 -6.428577,2.996142 -6.176598,2.188224 -10.334132,3.452595 -7.986143,2.428707 z m 38.369746,0.03181 c -0.298339,-0.169012 -3.552935,-1.316499 -7.232438,-2.549977 -8.495854,-2.848058 -8.003564,-2.630702 -6.518733,-2.878156 2.105391,-0.350878 2.167988,-0.728093 2.17394,-13.100538 l 0.0053,-11.083087 -3.234762,-4.147839 -3.234762,-4.147839 -0.217153,-3.754223 -0.217154,-3.754223 1.37259,2.693089 c 0.98087,1.924514 2.543203,3.966664 5.474423,7.155702 2.256007,2.454437 4.481653,4.711483 4.945885,5.015657 l 0.844051,0.553045 0.116822,11.638024 0.116822,11.638023 0.955372,1.80811 c 1.140707,2.158861 1.726148,2.72204 4.310276,4.14636 1.081734,0.596231 1.722694,1.082056 1.424356,1.079611 -0.298338,-0.0025 -0.786527,-0.142728 -1.084865,-0.311739 z M 0.91590829,51.63628 c 0,-0.190882 0.52887201,-0.613028 1.17527201,-0.938101 1.934619,-0.972918 4.226557,-3.433712 4.681126,-5.026009 0.56477,-1.978303 0.52071,-26.91496 -0.05367,-30.375964 -0.641246,-3.86392 -0.874503,-4.167629 -4.146013,-5.3982784 -1.57495701,-0.592455 -2.68561401,-1.136506 -2.46812301,-1.209003 0.217494,-0.0725 3.62158101,0.534246 7.56464501,1.3483184 6.7420637,1.391944 7.2350917,1.549405 8.2750297,2.642836 0.608204,0.639487 2.472071,2.590987 4.141929,4.336666 l 3.036104,3.173961 -1.120161,1.120161 c -0.616089,0.616089 -1.297701,1.010436 -1.514695,0.876326 -0.216994,-0.134109 -1.576789,-1.958637 -3.021766,-4.054506 l -2.627233,-3.810672 -0.09459,14.586407 c -0.05202,8.022523 -0.01681,14.789101 0.07826,15.036837 0.09507,0.24774 0.666744,0.750792 1.270396,1.117893 l 1.097552,0.66746 -6.419328,2.457184 C 7.2400133,49.53925 3.5783503,50.946111 2.6336123,51.314159 1.6888753,51.682206 0.91590829,51.827163 0.91590829,51.63628 Z M 54.723289,48.770705 c -7.215022,-2.728617 -8.082177,-3.13908 -7.150382,-3.384589 0.58322,-0.153667 1.205951,-0.560492 1.383854,-0.904054 0.446708,-0.862678 0.931299,-30.096846 0.498894,-30.096846 -0.185389,0 -1.59144,1.790494 -3.124558,3.978875 -2.980148,4.253879 -3.109294,4.324194 -4.704538,2.561466 -0.684966,-0.756878 -0.674432,-0.771654 3.620266,-5.077353 l 4.307227,-4.318266 7.194232,-1.473406 c 3.956827,-0.8103734 7.253148,-1.4144894 7.325158,-1.3424804 0.07201,0.07201 -0.874821,0.435441 -2.104068,0.807627 -1.229247,0.372186 -2.680566,1.0516264 -3.225154,1.5098664 -1.657418,1.394627 -1.921539,4.139426 -1.940792,20.169089 -0.0196,16.311866 -0.131171,15.716814 3.45226,18.410528 1.166353,0.876763 2.327496,1.667912 2.58032,1.758104 0.252821,0.09019 0.378311,0.241083 0.278865,0.33531 -0.09945,0.09423 -3.875661,-1.226014 -8.391584,-2.933871 z M 30.257306,35.971737 c -0.8675,-2.02743 -2.210021,-4.533587 -2.98338,-5.569236 -1.565395,-2.096311 -1.75733,-3.342367 -0.718303,-4.663276 l 0.687804,-0.874401 2.157248,2.354255 c 1.186487,1.294841 2.296481,2.354257 2.466657,2.354257 0.170176,0 1.322035,-1.003622 2.559683,-2.230272 1.922447,-1.905356 2.332153,-2.162318 2.8123,-1.76383 0.989467,0.821186 0.713195,3.156724 -0.564198,4.769563 -0.619423,0.782084 -1.853996,3.08372 -2.743495,5.114745 -0.889504,2.031026 -1.725226,3.805647 -1.85716,3.943603 -0.131934,0.137956 -0.949655,-1.407977 -1.817156,-3.435408 z"
       id="path42" />
  </g>
</svg>
